<mxfile host="app.diagrams.net" modified="2023-09-08T23:09:07.604Z" agent="Mozilla/5.0 (Macintosh; Intel Mac OS X 10_15_7) AppleWebKit/537.36 (KHTML, like Gecko) Chrome/116.0.0.0 Safari/537.36" etag="mE9WAVEEdqPdBN-ccVpw" version="21.7.2" type="github">
  <diagram name="Page-1" id="e56a1550-8fbb-45ad-956c-1786394a9013">
    <mxGraphModel dx="1135" dy="780" grid="1" gridSize="10" guides="1" tooltips="1" connect="1" arrows="1" fold="1" page="1" pageScale="1" pageWidth="1100" pageHeight="850" background="none" math="0" shadow="0">
      <root>
        <mxCell id="0" />
        <mxCell id="1" parent="0" />
        <mxCell id="2e49270ec7c68f3f-80" value="Subject" style="swimlane;html=1;fontStyle=0;childLayout=stackLayout;horizontal=1;startSize=26;fillColor=#e0e0e0;horizontalStack=0;resizeParent=1;resizeLast=0;collapsible=1;marginBottom=0;swimlaneFillColor=#ffffff;align=center;rounded=0;shadow=0;comic=0;labelBackgroundColor=none;strokeWidth=1;fontFamily=Verdana;fontSize=14" parent="1" vertex="1">
          <mxGeometry x="30" y="358" width="220" height="152" as="geometry" />
        </mxCell>
        <mxCell id="2e49270ec7c68f3f-81" value="&lt;span style=&quot;font-weight: 400;&quot;&gt;int&lt;/span&gt;" style="shape=partialRectangle;top=0;left=0;right=0;bottom=1;html=1;align=right;verticalAlign=middle;fillColor=none;spacingLeft=34;spacingRight=4;whiteSpace=wrap;overflow=hidden;rotatable=0;points=[[0,0.5],[1,0.5]];portConstraint=eastwest;dropTarget=0;fontStyle=5;" parent="2e49270ec7c68f3f-80" vertex="1">
          <mxGeometry y="26" width="220" height="30" as="geometry" />
        </mxCell>
        <mxCell id="2e49270ec7c68f3f-82" value="_id" style="shape=partialRectangle;top=0;left=0;bottom=0;html=1;fillColor=none;align=left;verticalAlign=middle;spacingLeft=4;spacingRight=4;whiteSpace=wrap;overflow=hidden;rotatable=0;points=[];portConstraint=eastwest;part=1;" parent="2e49270ec7c68f3f-81" vertex="1" connectable="0">
          <mxGeometry width="120" height="30" as="geometry" />
        </mxCell>
        <mxCell id="TfCNdOQAZOzX627m7ygY-2" value="&lt;span style=&quot;font-weight: 400;&quot;&gt;string&lt;/span&gt;" style="shape=partialRectangle;top=0;left=0;right=0;bottom=1;html=1;align=right;verticalAlign=middle;fillColor=none;spacingLeft=34;spacingRight=4;whiteSpace=wrap;overflow=hidden;rotatable=0;points=[[0,0.5],[1,0.5]];portConstraint=eastwest;dropTarget=0;fontStyle=5;" vertex="1" parent="2e49270ec7c68f3f-80">
          <mxGeometry y="56" width="220" height="30" as="geometry" />
        </mxCell>
        <mxCell id="TfCNdOQAZOzX627m7ygY-3" value="grade" style="shape=partialRectangle;top=0;left=0;bottom=0;html=1;fillColor=none;align=left;verticalAlign=middle;spacingLeft=4;spacingRight=4;whiteSpace=wrap;overflow=hidden;rotatable=0;points=[];portConstraint=eastwest;part=1;" vertex="1" connectable="0" parent="TfCNdOQAZOzX627m7ygY-2">
          <mxGeometry width="120" height="30" as="geometry" />
        </mxCell>
        <mxCell id="TfCNdOQAZOzX627m7ygY-4" value="&lt;span style=&quot;font-weight: 400;&quot;&gt;objectid&lt;/span&gt;" style="shape=partialRectangle;top=0;left=0;right=0;bottom=1;html=1;align=right;verticalAlign=middle;fillColor=none;spacingLeft=34;spacingRight=4;whiteSpace=wrap;overflow=hidden;rotatable=0;points=[[0,0.5],[1,0.5]];portConstraint=eastwest;dropTarget=0;fontStyle=5;" vertex="1" parent="2e49270ec7c68f3f-80">
          <mxGeometry y="86" width="220" height="30" as="geometry" />
        </mxCell>
        <mxCell id="TfCNdOQAZOzX627m7ygY-5" value="authors[]" style="shape=partialRectangle;top=0;left=0;bottom=0;html=1;fillColor=none;align=left;verticalAlign=middle;spacingLeft=4;spacingRight=4;whiteSpace=wrap;overflow=hidden;rotatable=0;points=[];portConstraint=eastwest;part=1;" vertex="1" connectable="0" parent="TfCNdOQAZOzX627m7ygY-4">
          <mxGeometry width="120" height="30" as="geometry" />
        </mxCell>
        <mxCell id="TfCNdOQAZOzX627m7ygY-8" value="&lt;span style=&quot;font-weight: 400;&quot;&gt;objectid&lt;/span&gt;" style="shape=partialRectangle;top=0;left=0;right=0;bottom=1;html=1;align=right;verticalAlign=middle;fillColor=none;spacingLeft=34;spacingRight=4;whiteSpace=wrap;overflow=hidden;rotatable=0;points=[[0,0.5],[1,0.5]];portConstraint=eastwest;dropTarget=0;fontStyle=5;" vertex="1" parent="2e49270ec7c68f3f-80">
          <mxGeometry y="116" width="220" height="30" as="geometry" />
        </mxCell>
        <mxCell id="TfCNdOQAZOzX627m7ygY-9" value="units[]" style="shape=partialRectangle;top=0;left=0;bottom=0;html=1;fillColor=none;align=left;verticalAlign=middle;spacingLeft=4;spacingRight=4;whiteSpace=wrap;overflow=hidden;rotatable=0;points=[];portConstraint=eastwest;part=1;" vertex="1" connectable="0" parent="TfCNdOQAZOzX627m7ygY-8">
          <mxGeometry width="120" height="30" as="geometry" />
        </mxCell>
        <mxCell id="TfCNdOQAZOzX627m7ygY-520" style="edgeStyle=orthogonalEdgeStyle;rounded=0;orthogonalLoop=1;jettySize=auto;html=1;exitX=1.005;exitY=0.055;exitDx=0;exitDy=0;exitPerimeter=0;endArrow=ERmany;endFill=0;startArrow=ERmany;startFill=0;strokeWidth=2;" edge="1" parent="1" source="TfCNdOQAZOzX627m7ygY-10" target="TfCNdOQAZOzX627m7ygY-512">
          <mxGeometry relative="1" as="geometry">
            <mxPoint x="260" y="120" as="sourcePoint" />
            <Array as="points">
              <mxPoint x="310" y="120" />
              <mxPoint x="310" y="211" />
            </Array>
          </mxGeometry>
        </mxCell>
        <mxCell id="TfCNdOQAZOzX627m7ygY-10" value="User" style="swimlane;html=1;fontStyle=0;childLayout=stackLayout;horizontal=1;startSize=26;fillColor=#e0e0e0;horizontalStack=0;resizeParent=1;resizeLast=0;collapsible=1;marginBottom=0;swimlaneFillColor=#ffffff;align=center;rounded=0;shadow=0;comic=0;labelBackgroundColor=none;strokeWidth=1;fontFamily=Verdana;fontSize=14" vertex="1" parent="1">
          <mxGeometry x="30" y="110" width="220" height="180" as="geometry" />
        </mxCell>
        <mxCell id="TfCNdOQAZOzX627m7ygY-11" value="&lt;span style=&quot;font-weight: 400;&quot;&gt;int&lt;/span&gt;" style="shape=partialRectangle;top=0;left=0;right=0;bottom=1;html=1;align=right;verticalAlign=middle;fillColor=none;spacingLeft=34;spacingRight=4;whiteSpace=wrap;overflow=hidden;rotatable=0;points=[[0,0.5],[1,0.5]];portConstraint=eastwest;dropTarget=0;fontStyle=5;" vertex="1" parent="TfCNdOQAZOzX627m7ygY-10">
          <mxGeometry y="26" width="220" height="30" as="geometry" />
        </mxCell>
        <mxCell id="TfCNdOQAZOzX627m7ygY-12" value="_id" style="shape=partialRectangle;top=0;left=0;bottom=0;html=1;fillColor=none;align=left;verticalAlign=middle;spacingLeft=4;spacingRight=4;whiteSpace=wrap;overflow=hidden;rotatable=0;points=[];portConstraint=eastwest;part=1;" vertex="1" connectable="0" parent="TfCNdOQAZOzX627m7ygY-11">
          <mxGeometry width="120" height="30" as="geometry" />
        </mxCell>
        <mxCell id="TfCNdOQAZOzX627m7ygY-13" value="&lt;span style=&quot;font-weight: 400;&quot;&gt;string&lt;/span&gt;" style="shape=partialRectangle;top=0;left=0;right=0;bottom=1;html=1;align=right;verticalAlign=middle;fillColor=none;spacingLeft=34;spacingRight=4;whiteSpace=wrap;overflow=hidden;rotatable=0;points=[[0,0.5],[1,0.5]];portConstraint=eastwest;dropTarget=0;fontStyle=5;" vertex="1" parent="TfCNdOQAZOzX627m7ygY-10">
          <mxGeometry y="56" width="220" height="30" as="geometry" />
        </mxCell>
        <mxCell id="TfCNdOQAZOzX627m7ygY-14" value="firstName" style="shape=partialRectangle;top=0;left=0;bottom=0;html=1;fillColor=none;align=left;verticalAlign=middle;spacingLeft=4;spacingRight=4;whiteSpace=wrap;overflow=hidden;rotatable=0;points=[];portConstraint=eastwest;part=1;" vertex="1" connectable="0" parent="TfCNdOQAZOzX627m7ygY-13">
          <mxGeometry width="120" height="30" as="geometry" />
        </mxCell>
        <mxCell id="TfCNdOQAZOzX627m7ygY-15" value="&lt;span style=&quot;font-weight: 400;&quot;&gt;string&lt;/span&gt;" style="shape=partialRectangle;top=0;left=0;right=0;bottom=1;html=1;align=right;verticalAlign=middle;fillColor=none;spacingLeft=34;spacingRight=4;whiteSpace=wrap;overflow=hidden;rotatable=0;points=[[0,0.5],[1,0.5]];portConstraint=eastwest;dropTarget=0;fontStyle=5;" vertex="1" parent="TfCNdOQAZOzX627m7ygY-10">
          <mxGeometry y="86" width="220" height="30" as="geometry" />
        </mxCell>
        <mxCell id="TfCNdOQAZOzX627m7ygY-16" value="lastName" style="shape=partialRectangle;top=0;left=0;bottom=0;html=1;fillColor=none;align=left;verticalAlign=middle;spacingLeft=4;spacingRight=4;whiteSpace=wrap;overflow=hidden;rotatable=0;points=[];portConstraint=eastwest;part=1;" vertex="1" connectable="0" parent="TfCNdOQAZOzX627m7ygY-15">
          <mxGeometry width="120" height="30" as="geometry" />
        </mxCell>
        <mxCell id="TfCNdOQAZOzX627m7ygY-17" value="&lt;span style=&quot;font-weight: 400;&quot;&gt;objectid&lt;/span&gt;" style="shape=partialRectangle;top=0;left=0;right=0;bottom=1;html=1;align=right;verticalAlign=middle;fillColor=none;spacingLeft=34;spacingRight=4;whiteSpace=wrap;overflow=hidden;rotatable=0;points=[[0,0.5],[1,0.5]];portConstraint=eastwest;dropTarget=0;fontStyle=5;" vertex="1" parent="TfCNdOQAZOzX627m7ygY-10">
          <mxGeometry y="116" width="220" height="30" as="geometry" />
        </mxCell>
        <mxCell id="TfCNdOQAZOzX627m7ygY-18" value="school" style="shape=partialRectangle;top=0;left=0;bottom=0;html=1;fillColor=none;align=left;verticalAlign=middle;spacingLeft=4;spacingRight=4;whiteSpace=wrap;overflow=hidden;rotatable=0;points=[];portConstraint=eastwest;part=1;" vertex="1" connectable="0" parent="TfCNdOQAZOzX627m7ygY-17">
          <mxGeometry width="120" height="30" as="geometry" />
        </mxCell>
        <mxCell id="TfCNdOQAZOzX627m7ygY-19" value="&lt;span style=&quot;font-weight: 400;&quot;&gt;objectid&lt;/span&gt;" style="shape=partialRectangle;top=0;left=0;right=0;bottom=1;html=1;align=right;verticalAlign=middle;fillColor=none;spacingLeft=34;spacingRight=4;whiteSpace=wrap;overflow=hidden;rotatable=0;points=[[0,0.5],[1,0.5]];portConstraint=eastwest;dropTarget=0;fontStyle=5;" vertex="1" parent="TfCNdOQAZOzX627m7ygY-10">
          <mxGeometry y="146" width="220" height="30" as="geometry" />
        </mxCell>
        <mxCell id="TfCNdOQAZOzX627m7ygY-20" value="title" style="shape=partialRectangle;top=0;left=0;bottom=0;html=1;fillColor=none;align=left;verticalAlign=middle;spacingLeft=4;spacingRight=4;whiteSpace=wrap;overflow=hidden;rotatable=0;points=[];portConstraint=eastwest;part=1;" vertex="1" connectable="0" parent="TfCNdOQAZOzX627m7ygY-19">
          <mxGeometry width="120" height="30" as="geometry" />
        </mxCell>
        <mxCell id="TfCNdOQAZOzX627m7ygY-21" style="edgeStyle=orthogonalEdgeStyle;rounded=0;orthogonalLoop=1;jettySize=auto;html=1;exitX=1;exitY=0.5;exitDx=0;exitDy=0;entryX=1;entryY=0.5;entryDx=0;entryDy=0;endArrow=ERmany;endFill=0;strokeWidth=2;startArrow=ERmany;startFill=0;" edge="1" parent="1" source="TfCNdOQAZOzX627m7ygY-4" target="TfCNdOQAZOzX627m7ygY-11">
          <mxGeometry relative="1" as="geometry">
            <mxPoint x="290" y="150" as="targetPoint" />
            <Array as="points">
              <mxPoint x="290" y="459" />
              <mxPoint x="290" y="151" />
            </Array>
          </mxGeometry>
        </mxCell>
        <mxCell id="TfCNdOQAZOzX627m7ygY-22" value="Unit" style="swimlane;html=1;fontStyle=0;childLayout=stackLayout;horizontal=1;startSize=26;fillColor=#e0e0e0;horizontalStack=0;resizeParent=1;resizeLast=0;collapsible=1;marginBottom=0;swimlaneFillColor=#ffffff;align=center;rounded=0;shadow=0;comic=0;labelBackgroundColor=none;strokeWidth=1;fontFamily=Verdana;fontSize=14" vertex="1" parent="1">
          <mxGeometry x="350" y="358" width="250" height="242" as="geometry" />
        </mxCell>
        <mxCell id="TfCNdOQAZOzX627m7ygY-23" value="&lt;span style=&quot;font-weight: 400;&quot;&gt;int&lt;/span&gt;" style="shape=partialRectangle;top=0;left=0;right=0;bottom=1;html=1;align=right;verticalAlign=middle;fillColor=none;spacingLeft=34;spacingRight=4;whiteSpace=wrap;overflow=hidden;rotatable=0;points=[[0,0.5],[1,0.5]];portConstraint=eastwest;dropTarget=0;fontStyle=5;" vertex="1" parent="TfCNdOQAZOzX627m7ygY-22">
          <mxGeometry y="26" width="250" height="30" as="geometry" />
        </mxCell>
        <mxCell id="TfCNdOQAZOzX627m7ygY-24" value="_id" style="shape=partialRectangle;top=0;left=0;bottom=0;html=1;fillColor=none;align=left;verticalAlign=middle;spacingLeft=4;spacingRight=4;whiteSpace=wrap;overflow=hidden;rotatable=0;points=[];portConstraint=eastwest;part=1;" vertex="1" connectable="0" parent="TfCNdOQAZOzX627m7ygY-23">
          <mxGeometry width="120" height="30" as="geometry" />
        </mxCell>
        <mxCell id="TfCNdOQAZOzX627m7ygY-27" value="&lt;span style=&quot;font-weight: 400;&quot;&gt;string&lt;/span&gt;" style="shape=partialRectangle;top=0;left=0;right=0;bottom=1;html=1;align=right;verticalAlign=middle;fillColor=none;spacingLeft=34;spacingRight=4;whiteSpace=wrap;overflow=hidden;rotatable=0;points=[[0,0.5],[1,0.5]];portConstraint=eastwest;dropTarget=0;fontStyle=5;" vertex="1" parent="TfCNdOQAZOzX627m7ygY-22">
          <mxGeometry y="56" width="250" height="30" as="geometry" />
        </mxCell>
        <mxCell id="TfCNdOQAZOzX627m7ygY-28" value="unitTitle" style="shape=partialRectangle;top=0;left=0;bottom=0;html=1;fillColor=none;align=left;verticalAlign=middle;spacingLeft=4;spacingRight=4;whiteSpace=wrap;overflow=hidden;rotatable=0;points=[];portConstraint=eastwest;part=1;" vertex="1" connectable="0" parent="TfCNdOQAZOzX627m7ygY-27">
          <mxGeometry width="120" height="30" as="geometry" />
        </mxCell>
        <mxCell id="TfCNdOQAZOzX627m7ygY-29" value="&lt;span style=&quot;font-weight: 400;&quot;&gt;string&lt;/span&gt;" style="shape=partialRectangle;top=0;left=0;right=0;bottom=1;html=1;align=right;verticalAlign=middle;fillColor=none;spacingLeft=34;spacingRight=4;whiteSpace=wrap;overflow=hidden;rotatable=0;points=[[0,0.5],[1,0.5]];portConstraint=eastwest;dropTarget=0;fontStyle=5;" vertex="1" parent="TfCNdOQAZOzX627m7ygY-22">
          <mxGeometry y="86" width="250" height="30" as="geometry" />
        </mxCell>
        <mxCell id="TfCNdOQAZOzX627m7ygY-30" value="objectives[]" style="shape=partialRectangle;top=0;left=0;bottom=0;html=1;fillColor=none;align=left;verticalAlign=middle;spacingLeft=4;spacingRight=4;whiteSpace=wrap;overflow=hidden;rotatable=0;points=[];portConstraint=eastwest;part=1;" vertex="1" connectable="0" parent="TfCNdOQAZOzX627m7ygY-29">
          <mxGeometry width="120" height="30" as="geometry" />
        </mxCell>
        <mxCell id="TfCNdOQAZOzX627m7ygY-40" value="&lt;span style=&quot;font-weight: 400;&quot;&gt;string&lt;/span&gt;" style="shape=partialRectangle;top=0;left=0;right=0;bottom=1;html=1;align=right;verticalAlign=middle;fillColor=none;spacingLeft=34;spacingRight=4;whiteSpace=wrap;overflow=hidden;rotatable=0;points=[[0,0.5],[1,0.5]];portConstraint=eastwest;dropTarget=0;fontStyle=5;" vertex="1" parent="TfCNdOQAZOzX627m7ygY-22">
          <mxGeometry y="116" width="250" height="30" as="geometry" />
        </mxCell>
        <mxCell id="TfCNdOQAZOzX627m7ygY-41" value="essentailQuestions[]" style="shape=partialRectangle;top=0;left=0;bottom=0;html=1;fillColor=none;align=left;verticalAlign=middle;spacingLeft=4;spacingRight=4;whiteSpace=wrap;overflow=hidden;rotatable=0;points=[];portConstraint=eastwest;part=1;" vertex="1" connectable="0" parent="TfCNdOQAZOzX627m7ygY-40">
          <mxGeometry width="120" height="30" as="geometry" />
        </mxCell>
        <mxCell id="TfCNdOQAZOzX627m7ygY-42" value="&lt;span style=&quot;font-weight: 400;&quot;&gt;{link: string, title, string}&lt;br&gt;&lt;/span&gt;" style="shape=partialRectangle;top=0;left=0;right=0;bottom=1;html=1;align=right;verticalAlign=middle;fillColor=none;spacingLeft=34;spacingRight=4;whiteSpace=wrap;overflow=hidden;rotatable=0;points=[[0,0.5],[1,0.5]];portConstraint=eastwest;dropTarget=0;fontStyle=5;" vertex="1" parent="TfCNdOQAZOzX627m7ygY-22">
          <mxGeometry y="146" width="250" height="30" as="geometry" />
        </mxCell>
        <mxCell id="TfCNdOQAZOzX627m7ygY-43" value="resources" style="shape=partialRectangle;top=0;left=0;bottom=0;html=1;fillColor=none;align=left;verticalAlign=middle;spacingLeft=4;spacingRight=4;whiteSpace=wrap;overflow=hidden;rotatable=0;points=[];portConstraint=eastwest;part=1;" vertex="1" connectable="0" parent="TfCNdOQAZOzX627m7ygY-42">
          <mxGeometry width="120" height="30" as="geometry" />
        </mxCell>
        <mxCell id="TfCNdOQAZOzX627m7ygY-44" value="&lt;span style=&quot;font-weight: 400;&quot;&gt;string&lt;/span&gt;" style="shape=partialRectangle;top=0;left=0;right=0;bottom=1;html=1;align=right;verticalAlign=middle;fillColor=none;spacingLeft=34;spacingRight=4;whiteSpace=wrap;overflow=hidden;rotatable=0;points=[[0,0.5],[1,0.5]];portConstraint=eastwest;dropTarget=0;fontStyle=5;" vertex="1" parent="TfCNdOQAZOzX627m7ygY-22">
          <mxGeometry y="176" width="250" height="30" as="geometry" />
        </mxCell>
        <mxCell id="TfCNdOQAZOzX627m7ygY-45" value="description" style="shape=partialRectangle;top=0;left=0;bottom=0;html=1;fillColor=none;align=left;verticalAlign=middle;spacingLeft=4;spacingRight=4;whiteSpace=wrap;overflow=hidden;rotatable=0;points=[];portConstraint=eastwest;part=1;" vertex="1" connectable="0" parent="TfCNdOQAZOzX627m7ygY-44">
          <mxGeometry width="120" height="30" as="geometry" />
        </mxCell>
        <mxCell id="TfCNdOQAZOzX627m7ygY-46" value="&lt;span style=&quot;font-weight: 400;&quot;&gt;{objectid}&lt;/span&gt;" style="shape=partialRectangle;top=0;left=0;right=0;bottom=1;html=1;align=right;verticalAlign=middle;fillColor=none;spacingLeft=34;spacingRight=4;whiteSpace=wrap;overflow=hidden;rotatable=0;points=[[0,0.5],[1,0.5]];portConstraint=eastwest;dropTarget=0;fontStyle=5;" vertex="1" parent="TfCNdOQAZOzX627m7ygY-22">
          <mxGeometry y="206" width="250" height="30" as="geometry" />
        </mxCell>
        <mxCell id="TfCNdOQAZOzX627m7ygY-47" value="standards[]" style="shape=partialRectangle;top=0;left=0;bottom=0;html=1;fillColor=none;align=left;verticalAlign=middle;spacingLeft=4;spacingRight=4;whiteSpace=wrap;overflow=hidden;rotatable=0;points=[];portConstraint=eastwest;part=1;" vertex="1" connectable="0" parent="TfCNdOQAZOzX627m7ygY-46">
          <mxGeometry width="120" height="30" as="geometry" />
        </mxCell>
        <mxCell id="TfCNdOQAZOzX627m7ygY-49" style="edgeStyle=orthogonalEdgeStyle;rounded=0;orthogonalLoop=1;jettySize=auto;html=1;entryX=0;entryY=0.5;entryDx=0;entryDy=0;endArrow=ERmany;endFill=0;strokeWidth=2;" edge="1" parent="1" source="TfCNdOQAZOzX627m7ygY-8" target="TfCNdOQAZOzX627m7ygY-23">
          <mxGeometry relative="1" as="geometry">
            <mxPoint x="330" y="320" as="targetPoint" />
          </mxGeometry>
        </mxCell>
        <mxCell id="TfCNdOQAZOzX627m7ygY-471" value="Standard" style="swimlane;html=1;fontStyle=0;childLayout=stackLayout;horizontal=1;startSize=26;fillColor=#e0e0e0;horizontalStack=0;resizeParent=1;resizeLast=0;collapsible=1;marginBottom=0;swimlaneFillColor=#ffffff;align=center;rounded=0;shadow=0;comic=0;labelBackgroundColor=none;strokeWidth=1;fontFamily=Verdana;fontSize=14" vertex="1" parent="1">
          <mxGeometry x="660" y="358" width="250" height="182" as="geometry" />
        </mxCell>
        <mxCell id="TfCNdOQAZOzX627m7ygY-472" value="&lt;span style=&quot;font-weight: 400;&quot;&gt;int&lt;/span&gt;" style="shape=partialRectangle;top=0;left=0;right=0;bottom=1;html=1;align=right;verticalAlign=middle;fillColor=none;spacingLeft=34;spacingRight=4;whiteSpace=wrap;overflow=hidden;rotatable=0;points=[[0,0.5],[1,0.5]];portConstraint=eastwest;dropTarget=0;fontStyle=5;" vertex="1" parent="TfCNdOQAZOzX627m7ygY-471">
          <mxGeometry y="26" width="250" height="30" as="geometry" />
        </mxCell>
        <mxCell id="TfCNdOQAZOzX627m7ygY-473" value="_id" style="shape=partialRectangle;top=0;left=0;bottom=0;html=1;fillColor=none;align=left;verticalAlign=middle;spacingLeft=4;spacingRight=4;whiteSpace=wrap;overflow=hidden;rotatable=0;points=[];portConstraint=eastwest;part=1;" vertex="1" connectable="0" parent="TfCNdOQAZOzX627m7ygY-472">
          <mxGeometry width="120" height="30" as="geometry" />
        </mxCell>
        <mxCell id="TfCNdOQAZOzX627m7ygY-474" value="&lt;span style=&quot;font-weight: 400;&quot;&gt;string&lt;/span&gt;" style="shape=partialRectangle;top=0;left=0;right=0;bottom=1;html=1;align=right;verticalAlign=middle;fillColor=none;spacingLeft=34;spacingRight=4;whiteSpace=wrap;overflow=hidden;rotatable=0;points=[[0,0.5],[1,0.5]];portConstraint=eastwest;dropTarget=0;fontStyle=5;" vertex="1" parent="TfCNdOQAZOzX627m7ygY-471">
          <mxGeometry y="56" width="250" height="30" as="geometry" />
        </mxCell>
        <mxCell id="TfCNdOQAZOzX627m7ygY-475" value="number" style="shape=partialRectangle;top=0;left=0;bottom=0;html=1;fillColor=none;align=left;verticalAlign=middle;spacingLeft=4;spacingRight=4;whiteSpace=wrap;overflow=hidden;rotatable=0;points=[];portConstraint=eastwest;part=1;" vertex="1" connectable="0" parent="TfCNdOQAZOzX627m7ygY-474">
          <mxGeometry width="120" height="30" as="geometry" />
        </mxCell>
        <mxCell id="TfCNdOQAZOzX627m7ygY-476" value="&lt;span style=&quot;font-weight: 400;&quot;&gt;string&lt;/span&gt;" style="shape=partialRectangle;top=0;left=0;right=0;bottom=1;html=1;align=right;verticalAlign=middle;fillColor=none;spacingLeft=34;spacingRight=4;whiteSpace=wrap;overflow=hidden;rotatable=0;points=[[0,0.5],[1,0.5]];portConstraint=eastwest;dropTarget=0;fontStyle=5;" vertex="1" parent="TfCNdOQAZOzX627m7ygY-471">
          <mxGeometry y="86" width="250" height="30" as="geometry" />
        </mxCell>
        <mxCell id="TfCNdOQAZOzX627m7ygY-477" value="standard" style="shape=partialRectangle;top=0;left=0;bottom=0;html=1;fillColor=none;align=left;verticalAlign=middle;spacingLeft=4;spacingRight=4;whiteSpace=wrap;overflow=hidden;rotatable=0;points=[];portConstraint=eastwest;part=1;" vertex="1" connectable="0" parent="TfCNdOQAZOzX627m7ygY-476">
          <mxGeometry width="120" height="30" as="geometry" />
        </mxCell>
        <mxCell id="TfCNdOQAZOzX627m7ygY-478" value="&lt;span style=&quot;font-weight: 400;&quot;&gt;string&lt;/span&gt;" style="shape=partialRectangle;top=0;left=0;right=0;bottom=1;html=1;align=right;verticalAlign=middle;fillColor=none;spacingLeft=34;spacingRight=4;whiteSpace=wrap;overflow=hidden;rotatable=0;points=[[0,0.5],[1,0.5]];portConstraint=eastwest;dropTarget=0;fontStyle=5;" vertex="1" parent="TfCNdOQAZOzX627m7ygY-471">
          <mxGeometry y="116" width="250" height="30" as="geometry" />
        </mxCell>
        <mxCell id="TfCNdOQAZOzX627m7ygY-479" value="description" style="shape=partialRectangle;top=0;left=0;bottom=0;html=1;fillColor=none;align=left;verticalAlign=middle;spacingLeft=4;spacingRight=4;whiteSpace=wrap;overflow=hidden;rotatable=0;points=[];portConstraint=eastwest;part=1;" vertex="1" connectable="0" parent="TfCNdOQAZOzX627m7ygY-478">
          <mxGeometry width="120" height="30" as="geometry" />
        </mxCell>
        <mxCell id="TfCNdOQAZOzX627m7ygY-480" value="&lt;span style=&quot;font-weight: 400;&quot;&gt;objectid&lt;br&gt;&lt;/span&gt;" style="shape=partialRectangle;top=0;left=0;right=0;bottom=1;html=1;align=right;verticalAlign=middle;fillColor=none;spacingLeft=34;spacingRight=4;whiteSpace=wrap;overflow=hidden;rotatable=0;points=[[0,0.5],[1,0.5]];portConstraint=eastwest;dropTarget=0;fontStyle=5;" vertex="1" parent="TfCNdOQAZOzX627m7ygY-471">
          <mxGeometry y="146" width="250" height="30" as="geometry" />
        </mxCell>
        <mxCell id="TfCNdOQAZOzX627m7ygY-481" value="lessons" style="shape=partialRectangle;top=0;left=0;bottom=0;html=1;fillColor=none;align=left;verticalAlign=middle;spacingLeft=4;spacingRight=4;whiteSpace=wrap;overflow=hidden;rotatable=0;points=[];portConstraint=eastwest;part=1;" vertex="1" connectable="0" parent="TfCNdOQAZOzX627m7ygY-480">
          <mxGeometry width="120" height="30" as="geometry" />
        </mxCell>
        <mxCell id="TfCNdOQAZOzX627m7ygY-486" style="edgeStyle=orthogonalEdgeStyle;rounded=0;orthogonalLoop=1;jettySize=auto;html=1;exitX=1;exitY=0.5;exitDx=0;exitDy=0;entryX=0;entryY=0.5;entryDx=0;entryDy=0;strokeWidth=2;endArrow=ERmany;endFill=0;" edge="1" parent="1" source="TfCNdOQAZOzX627m7ygY-46" target="TfCNdOQAZOzX627m7ygY-472">
          <mxGeometry relative="1" as="geometry" />
        </mxCell>
        <mxCell id="TfCNdOQAZOzX627m7ygY-487" value="Lesson" style="swimlane;html=1;fontStyle=0;childLayout=stackLayout;horizontal=1;startSize=26;fillColor=#e0e0e0;horizontalStack=0;resizeParent=1;resizeLast=0;collapsible=1;marginBottom=0;swimlaneFillColor=#ffffff;align=center;rounded=0;shadow=0;comic=0;labelBackgroundColor=none;strokeWidth=1;fontFamily=Verdana;fontSize=14" vertex="1" parent="1">
          <mxGeometry x="950" y="358" width="350" height="242" as="geometry" />
        </mxCell>
        <mxCell id="TfCNdOQAZOzX627m7ygY-488" value="&lt;span style=&quot;font-weight: 400;&quot;&gt;int&lt;/span&gt;" style="shape=partialRectangle;top=0;left=0;right=0;bottom=1;html=1;align=right;verticalAlign=middle;fillColor=none;spacingLeft=34;spacingRight=4;whiteSpace=wrap;overflow=hidden;rotatable=0;points=[[0,0.5],[1,0.5]];portConstraint=eastwest;dropTarget=0;fontStyle=5;" vertex="1" parent="TfCNdOQAZOzX627m7ygY-487">
          <mxGeometry y="26" width="350" height="30" as="geometry" />
        </mxCell>
        <mxCell id="TfCNdOQAZOzX627m7ygY-489" value="_id" style="shape=partialRectangle;top=0;left=0;bottom=0;html=1;fillColor=none;align=left;verticalAlign=middle;spacingLeft=4;spacingRight=4;whiteSpace=wrap;overflow=hidden;rotatable=0;points=[];portConstraint=eastwest;part=1;" vertex="1" connectable="0" parent="TfCNdOQAZOzX627m7ygY-488">
          <mxGeometry width="120" height="30" as="geometry" />
        </mxCell>
        <mxCell id="TfCNdOQAZOzX627m7ygY-490" value="&lt;span style=&quot;font-weight: 400;&quot;&gt;string&lt;/span&gt;" style="shape=partialRectangle;top=0;left=0;right=0;bottom=1;html=1;align=right;verticalAlign=middle;fillColor=none;spacingLeft=34;spacingRight=4;whiteSpace=wrap;overflow=hidden;rotatable=0;points=[[0,0.5],[1,0.5]];portConstraint=eastwest;dropTarget=0;fontStyle=5;" vertex="1" parent="TfCNdOQAZOzX627m7ygY-487">
          <mxGeometry y="56" width="350" height="30" as="geometry" />
        </mxCell>
        <mxCell id="TfCNdOQAZOzX627m7ygY-491" value="title" style="shape=partialRectangle;top=0;left=0;bottom=0;html=1;fillColor=none;align=left;verticalAlign=middle;spacingLeft=4;spacingRight=4;whiteSpace=wrap;overflow=hidden;rotatable=0;points=[];portConstraint=eastwest;part=1;" vertex="1" connectable="0" parent="TfCNdOQAZOzX627m7ygY-490">
          <mxGeometry width="120" height="30" as="geometry" />
        </mxCell>
        <mxCell id="TfCNdOQAZOzX627m7ygY-492" value="&lt;span style=&quot;font-weight: 400;&quot;&gt;string&lt;/span&gt;" style="shape=partialRectangle;top=0;left=0;right=0;bottom=1;html=1;align=right;verticalAlign=middle;fillColor=none;spacingLeft=34;spacingRight=4;whiteSpace=wrap;overflow=hidden;rotatable=0;points=[[0,0.5],[1,0.5]];portConstraint=eastwest;dropTarget=0;fontStyle=5;" vertex="1" parent="TfCNdOQAZOzX627m7ygY-487">
          <mxGeometry y="86" width="350" height="30" as="geometry" />
        </mxCell>
        <mxCell id="TfCNdOQAZOzX627m7ygY-493" value="objective" style="shape=partialRectangle;top=0;left=0;bottom=0;html=1;fillColor=none;align=left;verticalAlign=middle;spacingLeft=4;spacingRight=4;whiteSpace=wrap;overflow=hidden;rotatable=0;points=[];portConstraint=eastwest;part=1;" vertex="1" connectable="0" parent="TfCNdOQAZOzX627m7ygY-492">
          <mxGeometry width="120" height="30" as="geometry" />
        </mxCell>
        <mxCell id="TfCNdOQAZOzX627m7ygY-494" value="&lt;span style=&quot;font-weight: 400;&quot;&gt;{title:string, link:string}&lt;/span&gt;" style="shape=partialRectangle;top=0;left=0;right=0;bottom=1;html=1;align=right;verticalAlign=middle;fillColor=none;spacingLeft=34;spacingRight=4;whiteSpace=wrap;overflow=hidden;rotatable=0;points=[[0,0.5],[1,0.5]];portConstraint=eastwest;dropTarget=0;fontStyle=5;" vertex="1" parent="TfCNdOQAZOzX627m7ygY-487">
          <mxGeometry y="116" width="350" height="30" as="geometry" />
        </mxCell>
        <mxCell id="TfCNdOQAZOzX627m7ygY-495" value="materialsAndReminders[]" style="shape=partialRectangle;top=0;left=0;bottom=0;html=1;fillColor=none;align=left;verticalAlign=middle;spacingLeft=4;spacingRight=4;whiteSpace=wrap;overflow=hidden;rotatable=0;points=[];portConstraint=eastwest;part=1;" vertex="1" connectable="0" parent="TfCNdOQAZOzX627m7ygY-494">
          <mxGeometry width="150" height="30" as="geometry" />
        </mxCell>
        <mxCell id="TfCNdOQAZOzX627m7ygY-496" value="&lt;span style=&quot;font-weight: 400;&quot;&gt;{activity:string, description: string}&lt;br&gt;&lt;/span&gt;" style="shape=partialRectangle;top=0;left=0;right=0;bottom=1;html=1;align=right;verticalAlign=middle;fillColor=none;spacingLeft=34;spacingRight=4;whiteSpace=wrap;overflow=hidden;rotatable=0;points=[[0,0.5],[1,0.5]];portConstraint=eastwest;dropTarget=0;fontStyle=5;" vertex="1" parent="TfCNdOQAZOzX627m7ygY-487">
          <mxGeometry y="146" width="350" height="30" as="geometry" />
        </mxCell>
        <mxCell id="TfCNdOQAZOzX627m7ygY-497" value="activities[]" style="shape=partialRectangle;top=0;left=0;bottom=0;html=1;fillColor=none;align=left;verticalAlign=middle;spacingLeft=4;spacingRight=4;whiteSpace=wrap;overflow=hidden;rotatable=0;points=[];portConstraint=eastwest;part=1;" vertex="1" connectable="0" parent="TfCNdOQAZOzX627m7ygY-496">
          <mxGeometry width="120" height="30" as="geometry" />
        </mxCell>
        <mxCell id="TfCNdOQAZOzX627m7ygY-498" value="&lt;span style=&quot;font-weight: 400;&quot;&gt;{title:string, link:string}&lt;/span&gt;" style="shape=partialRectangle;top=0;left=0;right=0;bottom=1;html=1;align=right;verticalAlign=middle;fillColor=none;spacingLeft=34;spacingRight=4;whiteSpace=wrap;overflow=hidden;rotatable=0;points=[[0,0.5],[1,0.5]];portConstraint=eastwest;dropTarget=0;fontStyle=5;" vertex="1" parent="TfCNdOQAZOzX627m7ygY-487">
          <mxGeometry y="176" width="350" height="30" as="geometry" />
        </mxCell>
        <mxCell id="TfCNdOQAZOzX627m7ygY-499" value="assessment" style="shape=partialRectangle;top=0;left=0;bottom=0;html=1;fillColor=none;align=left;verticalAlign=middle;spacingLeft=4;spacingRight=4;whiteSpace=wrap;overflow=hidden;rotatable=0;points=[];portConstraint=eastwest;part=1;" vertex="1" connectable="0" parent="TfCNdOQAZOzX627m7ygY-498">
          <mxGeometry width="120" height="30" as="geometry" />
        </mxCell>
        <mxCell id="TfCNdOQAZOzX627m7ygY-500" value="&lt;span style=&quot;font-weight: 400;&quot;&gt;string&lt;/span&gt;" style="shape=partialRectangle;top=0;left=0;right=0;bottom=1;html=1;align=right;verticalAlign=middle;fillColor=none;spacingLeft=34;spacingRight=4;whiteSpace=wrap;overflow=hidden;rotatable=0;points=[[0,0.5],[1,0.5]];portConstraint=eastwest;dropTarget=0;fontStyle=5;" vertex="1" parent="TfCNdOQAZOzX627m7ygY-487">
          <mxGeometry y="206" width="350" height="30" as="geometry" />
        </mxCell>
        <mxCell id="TfCNdOQAZOzX627m7ygY-501" value="notes" style="shape=partialRectangle;top=0;left=0;bottom=0;html=1;fillColor=none;align=left;verticalAlign=middle;spacingLeft=4;spacingRight=4;whiteSpace=wrap;overflow=hidden;rotatable=0;points=[];portConstraint=eastwest;part=1;" vertex="1" connectable="0" parent="TfCNdOQAZOzX627m7ygY-500">
          <mxGeometry width="120" height="30" as="geometry" />
        </mxCell>
        <mxCell id="TfCNdOQAZOzX627m7ygY-502" style="edgeStyle=orthogonalEdgeStyle;rounded=0;orthogonalLoop=1;jettySize=auto;html=1;exitX=1;exitY=0.5;exitDx=0;exitDy=0;entryX=0;entryY=0.5;entryDx=0;entryDy=0;endArrow=ERmany;endFill=0;strokeWidth=2;" edge="1" parent="1" source="TfCNdOQAZOzX627m7ygY-480" target="TfCNdOQAZOzX627m7ygY-488">
          <mxGeometry relative="1" as="geometry" />
        </mxCell>
        <mxCell id="TfCNdOQAZOzX627m7ygY-503" value="Curriculum" style="swimlane;html=1;fontStyle=0;childLayout=stackLayout;horizontal=1;startSize=26;fillColor=#e0e0e0;horizontalStack=0;resizeParent=1;resizeLast=0;collapsible=1;marginBottom=0;swimlaneFillColor=#ffffff;align=center;rounded=0;shadow=0;comic=0;labelBackgroundColor=none;strokeWidth=1;fontFamily=Verdana;fontSize=14" vertex="1" parent="1">
          <mxGeometry x="370" y="50" width="220" height="210" as="geometry" />
        </mxCell>
        <mxCell id="TfCNdOQAZOzX627m7ygY-504" value="&lt;span style=&quot;font-weight: 400;&quot;&gt;int&lt;/span&gt;" style="shape=partialRectangle;top=0;left=0;right=0;bottom=1;html=1;align=right;verticalAlign=middle;fillColor=none;spacingLeft=34;spacingRight=4;whiteSpace=wrap;overflow=hidden;rotatable=0;points=[[0,0.5],[1,0.5]];portConstraint=eastwest;dropTarget=0;fontStyle=5;" vertex="1" parent="TfCNdOQAZOzX627m7ygY-503">
          <mxGeometry y="26" width="220" height="30" as="geometry" />
        </mxCell>
        <mxCell id="TfCNdOQAZOzX627m7ygY-505" value="_id" style="shape=partialRectangle;top=0;left=0;bottom=0;html=1;fillColor=none;align=left;verticalAlign=middle;spacingLeft=4;spacingRight=4;whiteSpace=wrap;overflow=hidden;rotatable=0;points=[];portConstraint=eastwest;part=1;" vertex="1" connectable="0" parent="TfCNdOQAZOzX627m7ygY-504">
          <mxGeometry width="120" height="30" as="geometry" />
        </mxCell>
        <mxCell id="TfCNdOQAZOzX627m7ygY-506" value="&lt;span style=&quot;font-weight: 400;&quot;&gt;string&lt;/span&gt;" style="shape=partialRectangle;top=0;left=0;right=0;bottom=1;html=1;align=right;verticalAlign=middle;fillColor=none;spacingLeft=34;spacingRight=4;whiteSpace=wrap;overflow=hidden;rotatable=0;points=[[0,0.5],[1,0.5]];portConstraint=eastwest;dropTarget=0;fontStyle=5;" vertex="1" parent="TfCNdOQAZOzX627m7ygY-503">
          <mxGeometry y="56" width="220" height="30" as="geometry" />
        </mxCell>
        <mxCell id="TfCNdOQAZOzX627m7ygY-507" value="title" style="shape=partialRectangle;top=0;left=0;bottom=0;html=1;fillColor=none;align=left;verticalAlign=middle;spacingLeft=4;spacingRight=4;whiteSpace=wrap;overflow=hidden;rotatable=0;points=[];portConstraint=eastwest;part=1;" vertex="1" connectable="0" parent="TfCNdOQAZOzX627m7ygY-506">
          <mxGeometry width="120" height="30" as="geometry" />
        </mxCell>
        <mxCell id="TfCNdOQAZOzX627m7ygY-508" value="&lt;span style=&quot;font-weight: 400;&quot;&gt;string&lt;/span&gt;" style="shape=partialRectangle;top=0;left=0;right=0;bottom=1;html=1;align=right;verticalAlign=middle;fillColor=none;spacingLeft=34;spacingRight=4;whiteSpace=wrap;overflow=hidden;rotatable=0;points=[[0,0.5],[1,0.5]];portConstraint=eastwest;dropTarget=0;fontStyle=5;" vertex="1" parent="TfCNdOQAZOzX627m7ygY-503">
          <mxGeometry y="86" width="220" height="30" as="geometry" />
        </mxCell>
        <mxCell id="TfCNdOQAZOzX627m7ygY-509" value="grade" style="shape=partialRectangle;top=0;left=0;bottom=0;html=1;fillColor=none;align=left;verticalAlign=middle;spacingLeft=4;spacingRight=4;whiteSpace=wrap;overflow=hidden;rotatable=0;points=[];portConstraint=eastwest;part=1;" vertex="1" connectable="0" parent="TfCNdOQAZOzX627m7ygY-508">
          <mxGeometry width="120" height="30" as="geometry" />
        </mxCell>
        <mxCell id="TfCNdOQAZOzX627m7ygY-510" value="&lt;span style=&quot;font-weight: 400;&quot;&gt;string&lt;/span&gt;" style="shape=partialRectangle;top=0;left=0;right=0;bottom=1;html=1;align=right;verticalAlign=middle;fillColor=none;spacingLeft=34;spacingRight=4;whiteSpace=wrap;overflow=hidden;rotatable=0;points=[[0,0.5],[1,0.5]];portConstraint=eastwest;dropTarget=0;fontStyle=5;" vertex="1" parent="TfCNdOQAZOzX627m7ygY-503">
          <mxGeometry y="116" width="220" height="30" as="geometry" />
        </mxCell>
        <mxCell id="TfCNdOQAZOzX627m7ygY-511" value="description" style="shape=partialRectangle;top=0;left=0;bottom=0;html=1;fillColor=none;align=left;verticalAlign=middle;spacingLeft=4;spacingRight=4;whiteSpace=wrap;overflow=hidden;rotatable=0;points=[];portConstraint=eastwest;part=1;" vertex="1" connectable="0" parent="TfCNdOQAZOzX627m7ygY-510">
          <mxGeometry width="120" height="30" as="geometry" />
        </mxCell>
        <mxCell id="TfCNdOQAZOzX627m7ygY-512" value="&lt;span style=&quot;font-weight: 400;&quot;&gt;{objectid}&lt;/span&gt;" style="shape=partialRectangle;top=0;left=0;right=0;bottom=1;html=1;align=right;verticalAlign=middle;fillColor=none;spacingLeft=34;spacingRight=4;whiteSpace=wrap;overflow=hidden;rotatable=0;points=[[0,0.5],[1,0.5]];portConstraint=eastwest;dropTarget=0;fontStyle=5;" vertex="1" parent="TfCNdOQAZOzX627m7ygY-503">
          <mxGeometry y="146" width="220" height="30" as="geometry" />
        </mxCell>
        <mxCell id="TfCNdOQAZOzX627m7ygY-513" value="authors[]" style="shape=partialRectangle;top=0;left=0;bottom=0;html=1;fillColor=none;align=left;verticalAlign=middle;spacingLeft=4;spacingRight=4;whiteSpace=wrap;overflow=hidden;rotatable=0;points=[];portConstraint=eastwest;part=1;" vertex="1" connectable="0" parent="TfCNdOQAZOzX627m7ygY-512">
          <mxGeometry width="120" height="30" as="geometry" />
        </mxCell>
        <mxCell id="TfCNdOQAZOzX627m7ygY-518" value="&lt;span style=&quot;font-weight: normal;&quot;&gt;{objectid}&lt;/span&gt;" style="shape=partialRectangle;top=0;left=0;right=0;bottom=1;html=1;align=right;verticalAlign=middle;fillColor=none;spacingLeft=34;spacingRight=4;whiteSpace=wrap;overflow=hidden;rotatable=0;points=[[0,0.5],[1,0.5]];portConstraint=eastwest;dropTarget=0;fontStyle=5;" vertex="1" parent="TfCNdOQAZOzX627m7ygY-503">
          <mxGeometry y="176" width="220" height="30" as="geometry" />
        </mxCell>
        <mxCell id="TfCNdOQAZOzX627m7ygY-519" value="units[]" style="shape=partialRectangle;top=0;left=0;bottom=0;html=1;fillColor=none;align=left;verticalAlign=middle;spacingLeft=4;spacingRight=4;whiteSpace=wrap;overflow=hidden;rotatable=0;points=[];portConstraint=eastwest;part=1;" vertex="1" connectable="0" parent="TfCNdOQAZOzX627m7ygY-518">
          <mxGeometry width="120" height="30" as="geometry" />
        </mxCell>
        <mxCell id="TfCNdOQAZOzX627m7ygY-521" style="edgeStyle=orthogonalEdgeStyle;rounded=0;orthogonalLoop=1;jettySize=auto;html=1;exitX=0;exitY=0.5;exitDx=0;exitDy=0;entryX=0;entryY=0.075;entryDx=0;entryDy=0;entryPerimeter=0;endArrow=ERmany;endFill=0;strokeWidth=2;" edge="1" parent="1" source="TfCNdOQAZOzX627m7ygY-518" target="TfCNdOQAZOzX627m7ygY-22">
          <mxGeometry relative="1" as="geometry" />
        </mxCell>
      </root>
    </mxGraphModel>
  </diagram>
</mxfile>
